<svg width="45" height="45" viewBox="0 0 45 45" fill="none" xmlns="http://www.w3.org/2000/svg">
<path d="M15.0021 22.5C15.0021 18.358 18.3589 14.9994 22.5009 14.9994C26.6429 14.9994 30.0015 18.358 30.0015 22.5C30.0015 26.642 26.6429 30.0006 22.5009 30.0006C18.3589 30.0006 15.0021 26.642 15.0021 22.5ZM10.9474 22.5C10.9474 28.881 16.1199 34.0535 22.5009 34.0535C28.8819 34.0535 34.0544 28.881 34.0544 22.5C34.0544 16.119 28.8819 10.9465 22.5009 10.9465C16.1199 10.9465 10.9474 16.119 10.9474 22.5ZM31.8117 10.4884C31.8115 11.0224 31.9697 11.5445 32.2662 11.9886C32.5627 12.4328 32.9842 12.779 33.4775 12.9836C33.9708 13.1881 34.5136 13.2418 35.0374 13.1378C35.5612 13.0339 36.0424 12.7769 36.4202 12.3995C36.7979 12.022 37.0552 11.541 37.1596 11.0173C37.264 10.4936 37.2108 9.95069 37.0066 9.45725C36.8025 8.96381 36.4566 8.54199 36.0127 8.24513C35.5688 7.94827 35.0468 7.78971 34.5128 7.7895H34.5117C33.7959 7.78983 33.1095 8.07426 32.6033 8.5803C32.0971 9.08634 31.8124 9.77262 31.8117 10.4884V10.4884ZM13.4109 40.8145C11.2172 40.7146 10.0249 40.3492 9.23256 40.0405C8.18208 39.6315 7.43257 39.1444 6.64453 38.3575C5.85649 37.5705 5.36869 36.8217 4.96153 35.7712C4.65265 34.9792 4.28725 33.7865 4.18753 31.5929C4.07845 29.2212 4.05667 28.5088 4.05667 22.5002C4.05667 16.4916 4.08025 15.7811 4.18753 13.4075C4.28743 11.2138 4.65553 10.0235 4.96153 9.22914C5.37049 8.17866 5.85757 7.42914 6.64453 6.6411C7.43149 5.85306 8.18028 5.36526 9.23256 4.9581C10.0246 4.64922 11.2172 4.28382 13.4109 4.1841C15.7826 4.07502 16.495 4.05324 22.5009 4.05324C28.5068 4.05324 29.2199 4.07682 31.5936 4.1841C33.7872 4.284 34.9776 4.6521 35.7719 4.9581C36.8224 5.36526 37.5719 5.85414 38.3599 6.6411C39.148 7.42806 39.634 8.17866 40.0429 9.22914C40.3518 10.0211 40.7172 11.2138 40.8169 13.4075C40.926 15.7811 40.9478 16.4916 40.9478 22.5002C40.9478 28.5088 40.926 29.2192 40.8169 31.5929C40.717 33.7865 40.3498 34.9789 40.0429 35.7712C39.634 36.8217 39.1469 37.5712 38.3599 38.3575C37.573 39.1437 36.8224 39.6315 35.7719 40.0405C34.9799 40.3493 33.7872 40.7147 31.5936 40.8145C29.2219 40.9235 28.5095 40.9453 22.5009 40.9453C16.4923 40.9453 15.7819 40.9235 13.4109 40.8145V40.8145ZM13.2246 0.13626C10.8293 0.24534 9.1926 0.62514 7.76323 1.18134C6.28291 1.75572 5.02975 2.5263 3.77749 3.77658C2.52523 5.02686 1.75663 6.282 1.18225 7.76232C0.626055 9.1926 0.246255 10.8284 0.137175 13.2237C0.0262955 15.6227 0.000915527 16.3897 0.000915527 22.5C0.000915527 28.6103 0.0262955 29.3773 0.137175 31.7763C0.246255 34.1717 0.626055 35.8074 1.18225 37.2377C1.75663 38.7171 2.52541 39.9737 3.77749 41.2234C5.02957 42.4732 6.28291 43.2427 7.76323 43.8187C9.1953 44.3749 10.8293 44.7547 13.2246 44.8637C15.6249 44.9728 16.3906 45 22.5009 45C28.6112 45 29.3781 44.9746 31.7772 44.8637C34.1726 44.7547 35.8083 44.3749 37.2385 43.8187C38.718 43.2427 39.972 42.4737 41.2243 41.2234C42.4765 39.9731 43.2435 38.7171 43.8195 37.2377C44.3757 35.8074 44.7573 34.1716 44.8646 31.7763C44.9737 29.3755 44.9991 28.6103 44.9991 22.5C44.9991 16.3897 44.9737 15.6227 44.8646 13.2237C44.7555 10.8283 44.3757 9.1917 43.8195 7.76232C43.2435 6.2829 42.4746 5.02884 41.2243 3.77658C39.974 2.52432 38.718 1.75572 37.2403 1.18134C35.8083 0.62514 34.1724 0.24354 31.779 0.13626C29.3799 0.02718 28.613 0 22.5027 0C16.3924 0 15.6249 0.02538 13.2246 0.13626Z" fill="url(#paint0_radial)"/>
<path d="M15.0021 22.5C15.0021 18.358 18.3589 14.9994 22.5009 14.9994C26.6429 14.9994 30.0015 18.358 30.0015 22.5C30.0015 26.642 26.6429 30.0006 22.5009 30.0006C18.3589 30.0006 15.0021 26.642 15.0021 22.5ZM10.9474 22.5C10.9474 28.881 16.1199 34.0535 22.5009 34.0535C28.8819 34.0535 34.0544 28.881 34.0544 22.5C34.0544 16.119 28.8819 10.9465 22.5009 10.9465C16.1199 10.9465 10.9474 16.119 10.9474 22.5ZM31.8117 10.4884C31.8115 11.0224 31.9697 11.5445 32.2662 11.9886C32.5627 12.4328 32.9842 12.779 33.4775 12.9836C33.9708 13.1881 34.5136 13.2418 35.0374 13.1378C35.5612 13.0339 36.0424 12.7769 36.4202 12.3995C36.7979 12.022 37.0552 11.541 37.1596 11.0173C37.264 10.4936 37.2108 9.95069 37.0066 9.45725C36.8025 8.96381 36.4566 8.54199 36.0127 8.24513C35.5688 7.94827 35.0468 7.78971 34.5128 7.7895H34.5117C33.7959 7.78983 33.1095 8.07426 32.6033 8.5803C32.0971 9.08634 31.8124 9.77262 31.8117 10.4884V10.4884ZM13.4109 40.8145C11.2172 40.7146 10.0249 40.3492 9.23256 40.0405C8.18208 39.6315 7.43257 39.1444 6.64453 38.3575C5.85649 37.5705 5.36869 36.8217 4.96153 35.7712C4.65265 34.9792 4.28725 33.7865 4.18753 31.5929C4.07845 29.2212 4.05667 28.5088 4.05667 22.5002C4.05667 16.4916 4.08025 15.7811 4.18753 13.4075C4.28743 11.2138 4.65553 10.0235 4.96153 9.22914C5.37049 8.17866 5.85757 7.42914 6.64453 6.6411C7.43149 5.85306 8.18028 5.36526 9.23256 4.9581C10.0246 4.64922 11.2172 4.28382 13.4109 4.1841C15.7826 4.07502 16.495 4.05324 22.5009 4.05324C28.5068 4.05324 29.2199 4.07682 31.5936 4.1841C33.7872 4.284 34.9776 4.6521 35.7719 4.9581C36.8224 5.36526 37.5719 5.85414 38.3599 6.6411C39.148 7.42806 39.634 8.17866 40.0429 9.22914C40.3518 10.0211 40.7172 11.2138 40.8169 13.4075C40.926 15.7811 40.9478 16.4916 40.9478 22.5002C40.9478 28.5088 40.926 29.2192 40.8169 31.5929C40.717 33.7865 40.3498 34.9789 40.0429 35.7712C39.634 36.8217 39.1469 37.5712 38.3599 38.3575C37.573 39.1437 36.8224 39.6315 35.7719 40.0405C34.9799 40.3493 33.7872 40.7147 31.5936 40.8145C29.2219 40.9235 28.5095 40.9453 22.5009 40.9453C16.4923 40.9453 15.7819 40.9235 13.4109 40.8145V40.8145ZM13.2246 0.13626C10.8293 0.24534 9.1926 0.62514 7.76323 1.18134C6.28291 1.75572 5.02975 2.5263 3.77749 3.77658C2.52523 5.02686 1.75663 6.282 1.18225 7.76232C0.626055 9.1926 0.246255 10.8284 0.137175 13.2237C0.0262955 15.6227 0.000915527 16.3897 0.000915527 22.5C0.000915527 28.6103 0.0262955 29.3773 0.137175 31.7763C0.246255 34.1717 0.626055 35.8074 1.18225 37.2377C1.75663 38.7171 2.52541 39.9737 3.77749 41.2234C5.02957 42.4732 6.28291 43.2427 7.76323 43.8187C9.1953 44.3749 10.8293 44.7547 13.2246 44.8637C15.6249 44.9728 16.3906 45 22.5009 45C28.6112 45 29.3781 44.9746 31.7772 44.8637C34.1726 44.7547 35.8083 44.3749 37.2385 43.8187C38.718 43.2427 39.972 42.4737 41.2243 41.2234C42.4765 39.9731 43.2435 38.7171 43.8195 37.2377C44.3757 35.8074 44.7573 34.1716 44.8646 31.7763C44.9737 29.3755 44.9991 28.6103 44.9991 22.5C44.9991 16.3897 44.9737 15.6227 44.8646 13.2237C44.7555 10.8283 44.3757 9.1917 43.8195 7.76232C43.2435 6.2829 42.4746 5.02884 41.2243 3.77658C39.974 2.52432 38.718 1.75572 37.2403 1.18134C35.8083 0.62514 34.1724 0.24354 31.779 0.13626C29.3799 0.02718 28.613 0 22.5027 0C16.3924 0 15.6249 0.02538 13.2246 0.13626Z" fill="url(#paint1_radial)"/>
<defs>
<radialGradient id="paint0_radial" cx="0" cy="0" r="1" gradientUnits="userSpaceOnUse" gradientTransform="translate(5.97943 45.2126) scale(58.7436)">
<stop offset="0.09" stop-color="white"/>
<stop offset="0.78" stop-color="white"/>
</radialGradient>
<radialGradient id="paint1_radial" cx="0" cy="0" r="1" gradientUnits="userSpaceOnUse" gradientTransform="translate(27.2914 47.2286) scale(46.2981)">
<stop offset="0.64" stop-color="white" stop-opacity="0"/>
<stop offset="1" stop-color="white"/>
</radialGradient>
</defs>
</svg>
