<svg width="406" height="122" viewBox="0 0 406 122" fill="none" xmlns="http://www.w3.org/2000/svg">
<g clip-path="url(#clip0)">
<path d="M60.8848 0C27.2598 0 0 27.3104 0 60.9989C0 94.6909 27.2598 122 60.8848 122C94.5113 122 121.77 94.691 121.77 60.9989C121.77 27.3126 94.5127 0.00291143 60.884 0.00291143L60.8848 0V0ZM88.8062 87.9779C87.7127 89.7749 85.376 90.338 83.5881 89.2431C69.2908 80.4883 51.295 78.5107 30.1017 83.3612C28.0595 83.8303 26.0238 82.5476 25.5585 80.5021C25.091 78.456 26.3655 76.4165 28.4128 75.9503C51.6055 70.638 71.4996 72.9245 87.5476 82.7493C89.3362 83.8493 89.9032 86.1875 88.8054 87.9794L88.8062 87.9779V87.9779ZM96.2583 71.3708C94.8813 73.6092 91.9601 74.3114 89.7288 72.9369C73.3667 62.86 48.4167 59.9412 29.0592 65.8283C26.5487 66.588 23.8972 65.1705 23.1352 62.6597C22.3791 60.1445 23.7947 57.493 26.3008 56.7282C48.4124 50.0064 75.9004 53.2624 94.6944 64.8333C96.9265 66.21 97.6317 69.1382 96.2576 71.3715L96.2583 71.3708ZM96.8981 54.0753C77.2723 42.3981 44.9 41.3244 26.1648 47.0213C23.1563 47.9355 19.9747 46.2339 19.063 43.2197C18.1513 40.2041 19.8482 37.0187 22.8589 36.1024C44.3656 29.5612 80.118 30.825 102.71 44.2621C105.416 45.8711 106.304 49.3726 104.7 52.0801C103.1 54.7913 99.5961 55.6851 96.8988 54.0753H96.8981V54.0753ZM165.647 56.313C155.135 53.8014 153.264 52.0387 153.264 48.3346C153.264 44.8354 156.552 42.4804 161.442 42.4804C166.182 42.4804 170.883 44.2687 175.811 47.9501C175.96 48.0615 176.147 48.1059 176.331 48.0768C176.514 48.0491 176.677 47.9479 176.785 47.7957L181.918 40.5465C182.129 40.2478 182.071 39.8363 181.787 39.6083C175.922 34.8932 169.318 32.6009 161.598 32.6009C150.247 32.6009 142.319 39.4254 142.319 49.1898C142.319 59.6608 149.158 63.3684 160.977 66.2304C171.036 68.5518 172.734 70.4967 172.734 73.9734C172.734 77.826 169.301 80.221 163.776 80.221C157.64 80.221 152.635 78.1502 147.036 73.2923C146.897 73.1721 146.706 73.1176 146.531 73.1277C146.345 73.143 146.176 73.229 146.058 73.371L140.303 80.2334C140.061 80.5182 140.092 80.9436 140.371 81.1899C146.885 87.0164 154.897 90.094 163.543 90.094C175.774 90.094 183.678 83.3984 183.678 73.0353C183.7 64.287 178.473 59.443 165.669 56.3225L165.647 56.313V56.313ZM211.349 45.9258C206.048 45.9258 201.699 48.0178 198.113 52.3045V47.4795C198.113 47.0985 197.805 46.7882 197.426 46.7882H188.013C187.632 46.7882 187.325 47.0985 187.325 47.4795V101.092C187.325 101.473 187.632 101.784 188.013 101.784H197.426C197.805 101.784 198.113 101.473 198.113 101.092V84.169C201.7 88.2015 206.049 90.1719 211.349 90.1719C221.2 90.1719 231.172 82.5746 231.172 68.0514C231.187 53.5246 221.212 45.9251 211.36 45.9251L211.349 45.9258ZM220.227 68.0514C220.227 75.447 215.68 80.6078 209.169 80.6078C202.732 80.6078 197.877 75.2124 197.877 68.0514C197.877 60.8911 202.732 55.495 209.169 55.495C215.574 55.4943 220.227 60.7738 220.227 68.0506L220.227 68.0514V68.0514ZM256.731 45.9258C244.045 45.9258 234.107 55.7128 234.107 68.2094C234.107 80.5699 243.977 90.2542 256.576 90.2542C269.307 90.2542 279.276 80.5 279.276 68.0514C279.276 55.6457 269.374 45.9272 256.731 45.9272L256.731 45.9258V45.9258ZM256.731 80.6814C249.984 80.6814 244.897 75.2496 244.897 68.0477C244.897 60.8153 249.808 55.5671 256.576 55.5671C263.367 55.5671 268.488 60.9988 268.488 68.2058C268.488 75.4368 263.545 80.6814 256.732 80.6814H256.731V80.6814ZM306.367 46.7883H296.008V36.1782C296.008 35.7979 295.702 35.4876 295.321 35.4876H285.91C285.529 35.4876 285.22 35.7979 285.22 36.1782V46.7883H280.694C280.315 46.7883 280.008 47.0985 280.008 47.4795V55.5846C280.008 55.9648 280.315 56.2758 280.694 56.2758H285.22V77.2476C285.22 85.7227 289.43 90.0197 297.734 90.0197C301.11 90.0197 303.911 89.3211 306.551 87.8213C306.766 87.7011 306.899 87.4695 306.899 87.2233V79.505C306.899 79.2668 306.775 79.0417 306.572 78.9172C306.367 78.7883 306.111 78.7817 305.901 78.8859C304.088 79.8 302.335 80.2218 300.376 80.2218C297.356 80.2218 296.008 78.848 296.008 75.769V56.2795H306.367C306.747 56.2795 307.053 55.9692 307.053 55.5883V47.4839C307.067 47.103 306.762 46.7927 306.377 46.7927L306.367 46.7883V46.7883ZM342.457 46.8298V45.5266C342.457 41.6929 343.924 39.9834 347.215 39.9834C349.177 39.9834 350.753 40.3738 352.519 40.9638C352.736 41.0323 352.963 40.9981 353.14 40.8677C353.321 40.7373 353.424 40.5282 353.424 40.3068V32.3598C353.424 32.056 353.229 31.7872 352.937 31.6976C351.072 31.1418 348.686 30.5715 345.113 30.5715C336.419 30.5715 331.823 35.4766 331.823 44.7515V46.7474H327.301C326.922 46.7474 326.61 47.0577 326.61 47.4379V55.5845C326.61 55.9648 326.922 56.2758 327.301 56.2758H331.823V88.6239C331.823 89.0049 332.13 89.3152 332.51 89.3152H341.923C342.303 89.3152 342.613 89.0049 342.613 88.6239V56.278H351.401L364.864 88.6182C363.336 92.0162 361.833 92.6922 359.781 92.6922C358.123 92.6922 356.376 92.1961 354.591 91.2171C354.423 91.1246 354.224 91.1093 354.043 91.1655C353.863 91.2288 353.712 91.3628 353.635 91.5376L350.445 98.5501C350.293 98.8815 350.423 99.2705 350.742 99.4424C354.072 101.25 357.079 102.021 360.795 102.021C367.745 102.021 371.587 98.7774 374.973 90.0509L391.304 47.7738C391.386 47.5611 391.361 47.3207 391.231 47.132C391.102 46.9448 390.893 46.8319 390.664 46.8319H380.865C380.572 46.8319 380.309 47.0191 380.213 47.2952L370.175 76.0224L359.18 47.2763C359.08 47.0089 358.822 46.8319 358.537 46.8319H342.455L342.457 46.8298V46.8298ZM321.533 46.7883H312.12C311.739 46.7883 311.43 47.0985 311.43 47.4795V88.624C311.43 89.0049 311.739 89.3152 312.12 89.3152H321.533C321.912 89.3152 322.223 89.0049 322.223 88.624V47.4824C322.223 47.3915 322.205 47.3014 322.171 47.2174C322.136 47.1334 322.085 47.0571 322.021 46.9929C321.957 46.9286 321.88 46.8777 321.796 46.8431C321.713 46.8085 321.623 46.7908 321.532 46.7911L321.533 46.7883ZM316.88 28.0542C313.151 28.0542 310.125 31.0785 310.125 34.8146C310.125 38.5528 313.151 41.5808 316.88 41.5808C320.607 41.5808 323.63 38.5528 323.63 34.8146C323.63 31.0793 320.606 28.0542 316.883 28.0542H316.88V28.0542ZM399.341 60.017C395.616 60.017 392.717 57.0195 392.717 53.3796C392.717 49.7398 395.653 46.7081 399.376 46.7081C403.101 46.7081 406 49.7048 406 53.3418C406 56.9817 403.063 60.017 399.34 60.017H399.341V60.017ZM399.377 47.368C395.984 47.368 393.417 50.0705 393.417 53.3796C393.417 56.6874 395.966 59.3534 399.343 59.3534C402.736 59.3534 405.306 56.6532 405.306 53.3418C405.306 50.0341 402.754 47.368 399.38 47.368H399.377V47.368ZM400.846 54.0243L402.72 56.6524H401.14L399.453 54.2414H398.003V56.6524H396.68V49.6859H399.781C401.396 49.6859 402.459 50.5141 402.459 51.9083C402.466 53.0504 401.804 53.7483 400.852 54.0243H400.846V54.0243ZM399.726 50.8812H398.002V53.0847H399.726C400.587 53.0847 401.101 52.6629 401.101 51.9819C401.101 51.2651 400.585 50.8813 399.727 50.8813H399.726V50.8812Z" fill="white"/>
</g>
<defs>
<clipPath id="clip0">
<rect width="406" height="122" fill="white"/>
</clipPath>
</defs>
</svg>
