<svg width="45" height="45" viewBox="0 0 45 45" fill="none" xmlns="http://www.w3.org/2000/svg">
<path d="M14.8025 39.1559C30.4612 39.1559 39.0244 26.3412 39.0244 15.2287C39.0244 14.8648 39.0169 14.5026 39.0002 14.1418C40.6665 12.9508 42.1044 11.4762 43.2468 9.78712C41.7214 10.457 40.0799 10.9079 38.3579 11.1112C40.1156 10.0701 41.4649 8.42308 42.1016 6.45986C40.4304 7.43914 38.6022 8.12947 36.6958 8.50112C35.1423 6.86651 32.9306 5.84418 30.4817 5.84418C25.7804 5.84418 21.9681 9.61023 21.9681 14.2525C21.9681 14.9125 22.0429 15.5542 22.189 16.17C15.1136 15.8183 8.83961 12.472 4.64076 7.38368C3.8845 8.66704 3.48673 10.1256 3.48805 11.6104C3.48805 14.528 4.99092 17.1036 7.27644 18.6105C5.92453 18.5697 4.60229 18.209 3.42091 17.5586C3.41965 17.594 3.41965 17.6284 3.41965 17.6661C3.41965 21.7387 6.35405 25.1391 10.2494 25.9096C9.51778 26.1064 8.76286 26.2059 8.0046 26.2054C7.457 26.2054 6.92332 26.1522 6.40465 26.0539C7.48846 29.3952 10.6312 31.8267 14.3572 31.8947C11.4435 34.1506 7.77309 35.4943 3.7839 35.4943C3.10528 35.4949 2.42723 35.456 1.75325 35.3778C5.52089 37.7634 9.9946 39.1553 14.803 39.1553" fill="white"/>
</svg>
